HIERARCHY
ROOT Hip
{
    OFFSET 0.0 0.0 0.0
    CHANNELS 6 Xposition Yposition Zposition Zrotation Xrotation Yrotation
    JOINT RightHip
    {
        OFFSET -6.542606559244554 0.0 0.0
        CHANNELS 3 Zrotation Xrotation Yrotation
        JOINT RightKnee
        {
            OFFSET 0.0 0.0 -23.02823253995495
            CHANNELS 3 Zrotation Xrotation Yrotation
            JOINT RightAnkle
            {
                OFFSET 0.0 0.0 -27.494365810787585
                CHANNELS 3 Zrotation Xrotation Yrotation
                End Site
                {
                    OFFSET 0.0 -10.997746324315035 0.0
                }
            }
        }
    }
    JOINT LeftHip
    {
        OFFSET 6.542606559244554 0.0 0.0
        CHANNELS 3 Zrotation Xrotation Yrotation
        JOINT LeftKnee
        {
            OFFSET 0.0 0.0 -23.02823253995495
            CHANNELS 3 Zrotation Xrotation Yrotation
            JOINT LeftAnkle
            {
                OFFSET 0.0 0.0 -27.494365810787585
                CHANNELS 3 Zrotation Xrotation Yrotation
                End Site
                {
                    OFFSET 0.0 -10.997746324315035 0.0
                }
            }
        }
    }
    JOINT Spine
    {
        OFFSET 0.0 0.0 19.109671559670222
        CHANNELS 3 Zrotation Xrotation Yrotation
        JOINT Thorax
        {
            OFFSET 0.0 0.0 22.024536852947453
            CHANNELS 3 Zrotation Xrotation Yrotation
            JOINT Neck
            {
                OFFSET 0.0 0.0 2.791699693308296
                CHANNELS 3 Zrotation Xrotation Yrotation
                JOINT Head
                {
                    OFFSET 0.0 0.0 9.454494295974149
                    CHANNELS 3 Zrotation Xrotation Yrotation
                    End Site
                    {
                        OFFSET -3.78179771838966 0.0 0.0
                    }
                }
            }
            JOINT LeftShoulder
            {
                OFFSET 11.790431298389517 0.0 0.0
                CHANNELS 3 Zrotation Xrotation Yrotation
                JOINT LeftElbow
                {
                    OFFSET 22.142788314077933 0.0 0.0
                    CHANNELS 3 Zrotation Xrotation Yrotation
                    JOINT LeftWrist
                    {
                        OFFSET 12.308158142996586 0.0 0.0
                        CHANNELS 3 Zrotation Xrotation Yrotation
                        End Site
                        {
                            OFFSET 4.923263257198635 0.0 0.0
                        }
                    }
                }
            }
            JOINT RightShoulder
            {
                OFFSET -11.790431298389517 0.0 0.0
                CHANNELS 3 Zrotation Xrotation Yrotation
                JOINT RightElbow
                {
                    OFFSET -22.142788314077933 0.0 0.0
                    CHANNELS 3 Zrotation Xrotation Yrotation
                    JOINT RightWrist
                    {
                        OFFSET -12.308158142996586 0.0 0.0
                        CHANNELS 3 Zrotation Xrotation Yrotation
                        End Site
                        {
                            OFFSET -4.923263257198635 0.0 0.0
                        }
                    }
                }
            }
            JOINT Nose
            {
                OFFSET 0.0 0.0 8.852197216540842
                CHANNELS 3 Zrotation Xrotation Yrotation
                End Site
                {
                    OFFSET -3.540878886616338 0.0 0.0
                }
            }
        }
    }
}
MOTION
Frames: 4
Frame Time: 0.03333333333333333
-1.3339269092740302 42.39060223669397 8.931472800064475 1.8110337737404747 -0.1675810152677928 -1.0000739858448695 4.3668043534650405 -4.806168315016235 4.890498968346706 0.8544376220600016 12.631624817919002 -10.042760029619261 0.0 0.0 3.4787316828507215e-16 -3.6453324457702836 -8.099763499713253 -8.292337285957215 -0.2805071928036882 15.431921321036482 13.005037995800954 0.0 0.0 3.230250848361384e-16 3.9790839388695186e-16 3.3024095010795538 -6.032705385259636e-18 -1.3447017780415669 -0.017018650731618266 -0.583760945598586 -1.1388202866579666 -6.974903758300798 -36.34218394943418 -2.981770013872047e-16 7.951386703658792e-16 2.208373416523985e-15 -55.93117656619029 54.837985972299755 -6.132365611366024 -1.5187159312171508e-14 1.198497104930018e-14 -95.48223021856064 0.0 0.0 1.5902773407317584e-15 57.47224724047953 53.71599771455098 6.263301852153196 2.2591955802403867e-14 3.953706270673639e-15 87.23318714245623 0.0 0.0 1.5902773407317584e-15 0.0 0.0 4.969616689786745e-17
-1.3353395421249625 42.44400769234512 8.92024174125497 0.9520796254253133 -0.15268678132317717 -1.1688329712060355 5.208861762808836 -4.839979333100205 4.9701009961709985 0.8704334375137378 12.678199706432077 -10.3176552279639 0.0 0.0 -2.4848083448933725e-16 -2.7640022889120925 -8.136849601438318 -8.172093464245531 -0.29692636655286053 15.469897789541537 12.851586075522588 0.0 0.0 3.106010431116715e-17 -4.115843529427638e-16 3.3098189864166603 4.793467740255176e-16 -0.1529671539669429 -0.010815485064191676 -0.30716766756809527 -1.4893969792091397 -6.9897531251790825 -36.26920117816066 1.9878466759146977e-16 6.535727953533744e-33 3.767590652944576e-15 -56.26090064526853 55.00883715902153 -6.388779266810764 -2.3732982029056895e-15 -2.1174002271332933e-15 -96.52283165986124 -3.1805546814635168e-15 2.2069531490250793e-32 -7.951386703658792e-16 56.52813855126102 54.27954193585212 5.940746068602465 -4.607122281479133e-15 -4.386130026642675e-15 87.18469461052125 -3.1805546814635168e-15 -6.620859447075238e-32 2.3854160110976376e-15 -1.3049230121570102e-36 1.5530052155583578e-18 9.628632336461818e-17
-1.337627686535925 42.530512402172896 8.902049976546115 1.7853429709168207 -0.1506180161336828 -0.8463143103030512 4.453614933702256 -4.760023250447233 4.892820872406695 0.8847768650822881 12.765342731229824 -10.281835450934816 0.0 0.0 9.93923337957349e-17 -3.6172243303664566 -8.238106096662591 -8.4919735918948 -0.33354360208242223 15.56118947443812 13.279436232871866 0.0 0.0 -3.851452934584727e-16 4.024485890901258e-16 3.3242041359877104 -1.623828817978099e-16 -0.9392802925922772 -0.032281622157101474 -0.8416928758039831 -1.653624571067754 -7.027279606944382 -37.33773990055483 0.0 0.0 -2.6323438403714164e-15 -56.34690497108785 55.45506141113778 -6.266669275495373 -8.984315634357392e-15 4.577086807973942e-16 -95.832858918153 0.0 0.0 -7.951386703658792e-16 54.50277219008635 55.86561904864188 6.8134061100872385 4.6202722655450856e-15 4.372275896984642e-15 86.8405963679552 0.0 0.0 -7.951386703658792e-16 0.0 0.0 -8.696829207126804e-17
-1.3350286826958704 42.43225546002009 8.922713211833697 0.9774753770023332 -0.1488443982756918 -1.002532361718392 5.620705911839567 -4.6572272197038 5.033488237767129 0.6207675950051168 12.663828486159227 -10.210570676208114 7.951386703658792e-16 -1.5902773407317584e-15 2.4848083448933725e-16 -2.742454101375784 -8.31628072013745 -8.552882326575057 -0.4374822879905729 15.679239283482223 13.016113850349086 0.0 0.0 1.8636062586700292e-16 -1.9070075940450232e-16 3.2333829953172772 -2.8922353169835274e-16 -0.16287893582707946 -0.03425923927569274 -0.7751086812783616 -1.902022629696871 -6.994044022476672 -39.385754531966136 2.7332891793827095e-16 1.2424041724466861e-17 2.1742073017817006e-17 -56.47444866667472 55.84490959743486 -6.0164588530644165 -2.5074672275067488e-14 -5.366203090978671e-15 -96.35105268104002 0.0 0.0 7.951386703658792e-16 53.27777874862933 56.318694017421635 7.303397403487818 -2.4329621779497186e-15 -6.682838876522733e-15 86.86069584050698 0.0 0.0 1.6896696745274934e-15 0.0 0.0 -4.969616689786745e-17
